<svg width="44" height="45" viewBox="0 0 44 45" fill="none" xmlns="http://www.w3.org/2000/svg">
<circle cx="22" cy="22.2499" r="20.5" stroke="#6927DA" stroke-width="3"/>
<path d="M30.1317 30.3817C25.9923 34.5211 21.3028 37.2234 17.1264 38.2973C12.9123 39.3809 9.51571 38.7571 7.5043 36.7457C5.4929 34.7343 4.86911 31.3377 5.95273 27.1236C7.02666 22.9472 9.72887 18.2577 13.8683 14.1183C18.0077 9.97889 22.6972 7.27668 26.8736 6.20276C31.0876 5.11913 34.4843 5.74292 36.4957 7.75433C38.5071 9.76574 39.1309 13.1624 38.0473 17.3765C36.9733 21.5528 34.2711 26.2424 30.1317 30.3817Z" stroke="#6927DA" stroke-width="3"/>
<path d="M30.1315 14.1182C34.2709 18.2576 36.9731 22.9471 38.0471 27.1235C39.1307 31.3376 38.5069 34.7342 36.4955 36.7456C34.4841 38.757 31.0875 39.3808 26.8734 38.2972C22.697 37.2233 18.0075 34.5211 13.8681 30.3817C9.72868 26.2423 7.02647 21.5528 5.95254 17.3764C4.86892 13.1623 5.49271 9.76567 7.50412 7.75426C9.51552 5.74285 12.9122 5.11906 17.1262 6.20269C21.3026 7.27661 25.9921 9.97882 30.1315 14.1182Z" stroke="#6927DA" stroke-width="3"/>
</svg>
